<svg xmlns="http://www.w3.org/2000/svg" width="96" height="96" viewBox="0 0 96 96">
  <rect width="96" height="96" rx="48" fill="#ffffff"/>
  <circle cx="48" cy="48" r="43" fill="#f2f2f2" stroke="#d5d5d5"/>
  <circle cx="48" cy="36" r="12" fill="#f3c8ad"/>
  <path d="M30 40c2-10 8-16 18-16s16 6 18 16c-2-2-5-4-8-4H38c-3 0-6 2-8 4z" fill="#a35f3a"/>
  <rect x="27" y="31" width="7" height="20" rx="3" fill="#5b5b5b"/>
  <rect x="62" y="31" width="7" height="20" rx="3" fill="#5b5b5b"/>
  <path d="M29 60c4-13 12-21 19-21s15 8 19 21z" fill="#7db4e8"/>
  <path d="M43 48h10l-5 6z" fill="#ffffff"/>
</svg>
