<svg xmlns="http://www.w3.org/2000/svg" width="96" height="96" viewBox="0 0 96 96">
  <defs>
    <linearGradient id="bg" x1="0" y1="0" x2="1" y2="1">
      <stop offset="0" stop-color="#2b2b2b"/>
      <stop offset="1" stop-color="#0f0f0f"/>
    </linearGradient>
  </defs>
  <rect width="96" height="96" rx="48" fill="#e6e6e6"/>
  <circle cx="48" cy="48" r="43" fill="url(#bg)"/>
  <circle cx="48" cy="35" r="13" fill="#f2c6a5"/>
  <path d="M31 39c2-9 8-15 17-15 10 0 16 6 18 15-2-2-5-3-8-3H39c-3 0-6 1-8 3z" fill="#1e1e1e"/>
  <path d="M25 79c4-14 13-23 23-23s19 9 23 23z" fill="#2f3f52"/>
  <path d="M43 56h10l1 7-6 5-6-5z" fill="#ffffff"/>
  <circle cx="43" cy="35" r="1.6" fill="#2b2b2b"/>
  <circle cx="53" cy="35" r="1.6" fill="#2b2b2b"/>
</svg>
